<?xml version="1.0" encoding="iso-8859-1"?>
<!-- Generator: Adobe Illustrator 20.0.0, SVG Export Plug-In . SVG Version: 6.00 Build 0)  -->
<svg version="1.1" id="Layer_1_1_" xmlns="http://www.w3.org/2000/svg" xmlns:xlink="http://www.w3.org/1999/xlink" x="0px" y="0px"
	 viewBox="0 0 64 64" style="enable-background:new 0 0 64 64;" xml:space="preserve">
<path d="M57,11H7c-2.757,0-5,2.243-5,5v32c0,2.757,2.243,5,5,5h50c2.757,0,5-2.243,5-5V16C62,13.243,59.757,11,57,11z M7,13h50
	c1.654,0,3,1.346,3,3v3H4v-3C4,14.346,5.346,13,7,13z M57,51H7c-1.654,0-3-1.346-3-3V21h56v27C60,49.654,58.654,51,57,51z"/>
<path d="M26.845,2.442c-0.68,0.118-1.361,0.261-2.026,0.425l0.48,1.941c0.618-0.152,1.253-0.286,1.888-0.396L26.845,2.442z"/>
<path d="M18.985,4.968c-0.617,0.299-1.232,0.623-1.83,0.963l0.99,1.738c0.559-0.318,1.135-0.622,1.711-0.9L18.985,4.968z"/>
<path d="M22.827,3.432c-0.652,0.21-1.307,0.446-1.945,0.701l0.742,1.857c0.597-0.238,1.208-0.459,1.816-0.654L22.827,3.432z"/>
<path d="M30.958,2.019c-0.687,0.023-1.38,0.071-2.062,0.141l0.203,1.99c0.638-0.065,1.286-0.11,1.929-0.133L30.958,2.019z"/>
<path d="M44.993,4.957l-0.869,1.801c0.571,0.275,1.146,0.578,1.709,0.898l0.99-1.738C46.221,5.575,45.604,5.252,44.993,4.957z"/>
<path d="M48.584,7.004l-1.109,1.664c0.538,0.358,1.066,0.736,1.571,1.125l1.219-1.586C49.725,7.792,49.158,7.387,48.584,7.004z"/>
<path d="M37.136,2.439L36.798,4.41c0.626,0.107,1.261,0.24,1.887,0.394l0.477-1.941C38.49,2.697,37.809,2.555,37.136,2.439z"/>
<path d="M41.152,3.426L40.541,5.33c0.608,0.195,1.219,0.414,1.816,0.652l0.74-1.857C42.458,3.87,41.804,3.635,41.152,3.426z"/>
<path d="M33.026,2.019l-0.064,1.998c0.631,0.021,1.278,0.064,1.924,0.131l0.203-1.99C34.397,2.087,33.703,2.04,33.026,2.019z"/>
<path d="M15.396,7.018c-0.562,0.374-1.121,0.774-1.662,1.19l1.221,1.584c0.504-0.388,1.025-0.761,1.549-1.11L15.396,7.018z"/>
<path d="M32.972,59.983l0.07,1.998c0.687-0.023,1.38-0.071,2.062-0.141l-0.203-1.99C34.263,59.916,33.614,59.961,32.972,59.983z"/>
<path d="M36.813,59.587l0.342,1.971c0.68-0.118,1.361-0.261,2.026-0.425l-0.48-1.941C38.083,59.344,37.448,59.478,36.813,59.587z"/>
<path d="M40.56,58.664l0.613,1.904c0.652-0.21,1.307-0.446,1.945-0.701l-0.742-1.857C41.779,58.248,41.168,58.469,40.56,58.664z"/>
<path d="M47.496,55.318l1.107,1.664c0.562-0.374,1.121-0.774,1.662-1.19l-1.221-1.584C48.541,54.596,48.02,54.969,47.496,55.318z"/>
<path d="M44.144,57.231l0.871,1.801c0.617-0.299,1.232-0.623,1.83-0.963l-0.99-1.738C45.296,56.649,44.72,56.953,44.144,57.231z"/>
<path d="M20.902,59.875c0.64,0.255,1.294,0.49,1.945,0.699l0.611-1.904c-0.608-0.195-1.219-0.414-1.816-0.652L20.902,59.875z"/>
<path d="M13.735,55.793c0.54,0.415,1.106,0.82,1.681,1.203l1.109-1.664c-0.538-0.358-1.066-0.736-1.571-1.125L13.735,55.793z"/>
<path d="M17.177,58.082c0.603,0.343,1.219,0.666,1.83,0.961l0.869-1.801c-0.571-0.275-1.146-0.578-1.709-0.898L17.177,58.082z"/>
<path d="M28.911,61.843c0.691,0.07,1.386,0.117,2.062,0.139l0.064-1.998c-0.631-0.021-1.278-0.064-1.924-0.131L28.911,61.843z"/>
<path d="M24.839,61.138c0.671,0.165,1.353,0.308,2.025,0.423l0.338-1.971c-0.626-0.107-1.261-0.24-1.887-0.394L24.839,61.138z"/>
<rect x="28" y="25" width="11" height="2"/>
<rect x="42" y="25" width="11" height="2"/>
<rect x="28" y="30" width="5" height="2"/>
<rect x="36" y="30" width="4" height="2"/>
<rect x="28" y="35" width="5" height="2"/>
<rect x="28" y="40" width="2" height="2"/>
<rect x="32" y="40" width="2" height="2"/>
<rect x="36" y="40" width="2" height="2"/>
<rect x="40" y="40" width="9" height="2"/>
<rect x="51" y="40" width="7" height="2"/>
<path d="M57,30h-7c-0.553,0-1,0.447-1,1v5c0,0.553,0.447,1,1,1h7c0.553,0,1-0.447,1-1v-5C58,30.447,57.553,30,57,30z M56,35h-5v-3h5
	V35z"/>
<path d="M25,23H7c-0.553,0-1,0.447-1,1v20c0,0.553,0.447,1,1,1h18c0.553,0,1-0.447,1-1V24C26,23.447,25.553,23,25,23z M20,43h-8v-2
	c0-0.552,0.448-1,1-1h6c0.552,0,1,0.448,1,1V43z M24,43h-2v-2c0-1.654-1.346-3-3-3h-6c-1.654,0-3,1.346-3,3v2H8V25h16V43z"/>
<rect x="6" y="47" width="20" height="2"/>
<path d="M16,36c1.654,0,3-1.346,3-3v-2c0-1.654-1.346-3-3-3s-3,1.346-3,3v2C13,34.654,14.346,36,16,36z M15,31c0-0.552,0.448-1,1-1
	s1,0.448,1,1v2c0,0.552-0.448,1-1,1s-1-0.448-1-1V31z"/>
<rect x="33" y="47" width="9" height="2"/>
<rect x="47" y="47" width="9" height="2"/>
</svg>
