<svg id="Layer_1" enable-background="new 0 0 512.001 512.001" height="512" viewBox="0 0 512.001 512.001" width="512" xmlns="http://www.w3.org/2000/svg"><g><path d="m510.144 198.119c-2.728-3.117-7.465-3.434-10.583-.705l-97.102 84.975c-2.364 2.069-3.188 5.393-2.064 8.327 6.579 17.173 4.166 36.681-5.966 51.591l-18.402-16.409c-7.236-6.455-17.221 4.741-9.982 11.195l43.19 38.516c6.898 6.151 7.46 17.112 1.266 23.959-6.039 6.676-16.395 7.224-23.048 1.251-11.494-10.446-22.985-20.896-34.478-31.344-7.174-6.525-17.266 4.576-10.09 11.099l32.01 29.102c5.718 6.369 5.715 16.254-.053 22.632-6.04 6.677-16.394 7.223-23.115 1.19-11.617-10.126-22.761-20.788-34.044-31.282-7.1-6.605-17.315 4.38-10.215 10.984l25.157 23.396c6.616 6.24 7.718 17.143 1.422 24.104-6.04 6.676-16.395 7.224-23.083 1.22-9.725-8.937-19.699-17.418-29.234-26.583-6.991-6.72-17.386 4.094-10.395 10.814l13.966 13.424c6.708 6.498 8.011 16.92 1.47 24.15-6.039 6.677-16.393 7.224-23.041 1.255-.415-.383-3.361-3.229-6.335-6.108 6.788-11.492 5.135-26.33-4.938-37.091-5.339-5.698-12.622-9.274-20.413-9.916 2.593-10.272.089-21.672-7.583-29.867-5.783-6.177-13.555-9.716-21.941-10.005 2.379-10.135-.168-21.288-7.709-29.344-7.556-8.071-18.976-11.656-29.778-9.305-.242-7.531-3.084-15.002-8.554-20.845-11.968-12.756-32.453-13.324-44.977-1.066-4.908-12.518-5.241-26.726-.686-39.512 1.015-2.85.219-6.03-2.02-8.065l-96.25-87.533c-3.064-2.788-7.808-2.563-10.595.502-2.787 3.064-2.562 7.808.503 10.594l92.704 84.31c-4.61 16.726-2.906 34.905 4.697 50.443l-8.164 7.522c-12.543 11.498-12.196 32.694-.816 44.726 5.751 6.081 13.447 9.566 21.736 9.862-2.219 10.046.4 21.026 7.913 28.97 7.442 7.867 19.077 11.479 29.659 9.151.108 7.764 2.991 15.508 8.674 21.515 7.443 7.869 19.081 11.48 29.665 9.15.182 7.656 3.063 15.271 8.667 21.196 12.045 12.734 32.521 13.134 44.958.754l5.213-4.984c4.803 4.647 5.974 5.769 6.31 6.072 12.545 11.262 32.864 10.241 44.225-2.319 4.374-4.835 7.104-10.758 7.95-17.098 12.566 7.481 29.147 5.323 39.326-5.926 4.918-5.437 7.756-12.25 8.177-19.484 11.315 3.502 24.172.427 32.618-8.909 5.761-6.369 8.473-14.592 8.149-22.706 9.914 1.324 20.313-2.08 27.508-10.034 11.605-12.828 10.54-33.673-2.405-45.217l-13.52-12.057c12.764-17.697 16.701-40.885 10.412-61.982l93.329-81.673c3.118-2.727 3.433-7.465.705-10.582zm-408.371 185.994c-6.231-6.588-6.133-17.099.198-23.493 6.558-6.042 13.116-12.085 19.674-18.127 6.729-6.161 17.349-6.721 23.883.258 5.611 5.994 6.032 15.199 1.356 21.628-7.068 6.682-14.109 13.387-21.345 19.888-6.729 6.086-17.188 6.803-23.766-.154zm41.405 44.021c-4.474-.061-8.648-1.904-11.755-5.189-6.241-6.598-6.132-17.132.229-23.523 9.512-8.993 19.343-17.697 28.544-26.99 6.534-6.531 17.375-6.247 23.663.469 6.199 6.623 6.065 17.167-.283 23.552l-28.468 26.72c-3.161 2.977-7.547 5.018-11.93 4.961zm38.332 30.666c-4.474-.062-8.648-1.904-11.756-5.189-6.23-6.587-6.131-17.098.2-23.493l19.674-18.127c6.728-6.16 17.354-6.714 23.882.258 6.877 7.541 5.411 18.76-2.021 25.133-4.871 3.415-9.215 8.079-13.51 12.182-4.791 4.445-9.156 9.354-16.469 9.236zm50.091 25.553c-6.484 6.489-17.228 6.25-23.513-.396-5.958-6.298-6.129-16.182-.6-22.627l13.247-12.079c6.517-4.104 15.613-2.728 20.771 2.781 6.484 6.927 6.737 16.043.64 22.229-.032.031-.064.064-.096.096l-10.328 9.875c-.04.04-.081.08-.121.121z"/><path d="m2.455 20.986 185.419 168.574c2.377 2.162 5.866 2.569 8.68 1.011 13.909-7.705 30.313-8.852 44.895-3.547-16.621 14.445-37.364 28.287-50.434 46.237-5.568 7.649 6.21 16.957 12.127 8.829 12.268-16.854 31.957-29.141 47.323-43.013 16.689-15.103 41.805-18.312 61.774-7.824 2.763 1.452 6.136 1.04 8.469-1.033l188.774-167.712c3.097-2.751 3.377-7.492.625-10.588-2.751-3.097-7.491-3.377-10.588-.625l-185.058 164.41c-18.679-8.045-40.212-7.477-58.363 1.528-19.13-10.461-42.121-11.265-61.944-2.236l-181.609-165.11c-3.064-2.786-7.807-2.561-10.595.504-2.786 3.065-2.56 7.809.505 10.595z"/><path d="m192.748 272.251c.437-9.686-14.55-10.364-14.984-.675l-1.686 37.438c-.682 17.23 12.657 32.056 29.735 33.048 17.353 1.008 32.539-12.998 33.235-30.366l2.77-40.954c2.954-2.672 23.908-23.108 25.133-22.016l65.832 58.705c7.149 6.378 17.276-4.692 9.982-11.195l-71.061-63.69c-2.857-2.568-7.194-2.562-10.044.017l-32.152 29.088c-1.441 1.304-2.32 3.116-2.452 5.056l-2.98 44.085c-.677 8.966-7.941 16.849-17.392 16.294-8.973-.521-15.979-8.363-15.62-17.44z"/></g></svg>