<svg id="Capa_1" enable-background="new 0 0 512 512" height="512" viewBox="0 0 512 512" width="512" xmlns="http://www.w3.org/2000/svg"><g><path d="m40 339c-22.056 0-40 17.944-40 40s17.944 40 40 40v43c0 5.523 4.477 10 10 10h166c5.523 0 10-4.477 10-10v-54.84c0-3.251-1.581-6.299-4.237-8.173-2.657-1.873-6.059-2.338-9.121-1.246-2.376.847-4.549 1.259-6.642 1.259-11.028 0-20-8.972-20-20s8.972-20 20-20c2.093 0 4.266.412 6.642 1.259 3.063 1.094 6.465.627 9.121-1.246 2.657-1.874 4.237-4.922 4.237-8.173v-54.84c0-5.523-4.477-10-10-10h-43c0-22.056-17.944-40-40-40s-40 17.944-40 40h-43c-5.523 0-10 4.477-10 10zm6.642 21.259c3.063 1.094 6.465.627 9.121-1.246 2.657-1.874 4.237-4.922 4.237-8.173v-44.84h44.84c3.251 0 6.299-1.581 8.173-4.237 1.873-2.657 2.338-6.059 1.246-9.121-.847-2.376-1.259-4.549-1.259-6.642 0-11.028 8.972-20 20-20s20 8.972 20 20c0 2.093-.412 4.266-1.259 6.642-1.092 3.062-.627 6.464 1.246 9.121 1.874 2.657 4.922 4.237 8.173 4.237h44.84v33c-22.056 0-40 17.944-40 40s17.944 40 40 40v33h-146v-44.84c0-3.251-1.581-6.299-4.237-8.173-2.657-1.873-6.059-2.338-9.121-1.246-2.376.847-4.549 1.259-6.642 1.259-11.028 0-20-8.972-20-20s8.972-20 20-20c2.093 0 4.266.412 6.642 1.259z"/><path d="m472 93v-43c0-5.523-4.477-10-10-10h-166c-5.523 0-10 4.477-10 10v54.84c0 3.251 1.581 6.299 4.237 8.173 2.658 1.873 6.059 2.339 9.121 1.246 2.376-.847 4.548-1.259 6.642-1.259 11.028 0 20 8.972 20 20s-8.972 20-20 20c-2.093 0-4.266-.412-6.642-1.259-3.062-1.092-6.464-.627-9.121 1.246-2.657 1.874-4.237 4.922-4.237 8.173v54.84c0 5.523 4.477 10 10 10h43c0 22.056 17.944 40 40 40s40-17.944 40-40h43c5.523 0 10-4.477 10-10v-43c22.056 0 40-17.944 40-40s-17.944-40-40-40zm0 60c-2.093 0-4.266-.412-6.642-1.259-3.062-1.092-6.464-.627-9.121 1.246-2.657 1.874-4.237 4.922-4.237 8.173v44.84h-44.84c-3.251 0-6.299 1.581-8.173 4.237-1.873 2.657-2.338 6.059-1.246 9.121.847 2.376 1.259 4.548 1.259 6.642 0 11.028-8.972 20-20 20s-20-8.972-20-20c0-2.093.412-4.266 1.259-6.642 1.092-3.062.627-6.464-1.246-9.121-1.874-2.657-4.922-4.237-8.173-4.237h-44.84v-33c22.056 0 40-17.944 40-40s-17.944-40-40-40v-33h146v44.84c0 3.251 1.581 6.299 4.237 8.173 2.658 1.873 6.058 2.339 9.121 1.246 2.376-.847 4.548-1.259 6.642-1.259 11.028 0 20 8.972 20 20s-8.972 20-20 20z"/><path d="m216 40h-43c0-22.056-17.944-40-40-40s-40 17.944-40 40h-43c-5.523 0-10 4.477-10 10v166c0 5.523 4.477 10 10 10h54.84c3.251 0 6.299-1.581 8.173-4.237 1.873-2.657 2.338-6.059 1.246-9.121-.847-2.376-1.259-4.549-1.259-6.642 0-11.028 8.972-20 20-20s20 8.972 20 20c0 2.093-.412 4.266-1.259 6.642-1.092 3.062-.627 6.464 1.246 9.121 1.874 2.657 4.922 4.237 8.173 4.237h54.84c5.523 0 10-4.477 10-10v-43c22.056 0 40-17.944 40-40s-17.944-40-40-40v-43c0-5.523-4.477-10-10-10zm30 93c0 11.028-8.972 20-20 20-2.093 0-4.266-.412-6.642-1.259-3.063-1.092-6.464-.627-9.121 1.246-2.657 1.874-4.237 4.922-4.237 8.173v44.84h-33c0-22.056-17.944-40-40-40s-40 17.944-40 40h-33v-146h44.84c3.251 0 6.299-1.581 8.173-4.237 1.873-2.657 2.338-6.059 1.246-9.121-.847-2.376-1.259-4.549-1.259-6.642 0-11.028 8.972-20 20-20s20 8.972 20 20c0 2.093-.412 4.266-1.259 6.642-1.092 3.062-.627 6.464 1.246 9.121 1.874 2.657 4.922 4.237 8.173 4.237h44.84v44.84c0 3.251 1.581 6.299 4.237 8.173 2.657 1.873 6.058 2.339 9.121 1.246 2.376-.847 4.548-1.259 6.642-1.259 11.028 0 20 8.972 20 20z"/><circle cx="462" cy="379" r="10"/><path d="m359.013 290.237c-1.874-2.657-4.922-4.237-8.173-4.237h-54.84c-5.523 0-10 4.477-10 10v43c-22.056 0-40 17.944-40 40s17.944 40 40 40v43c0 5.523 4.477 10 10 10h43c0 22.056 17.944 40 40 40s40-17.944 40-40h43c5.523 0 10-4.477 10-10v-38c0-5.523-4.477-10-10-10s-10 4.477-10 10v28h-44.84c-3.251 0-6.299 1.581-8.173 4.237-1.873 2.657-2.338 6.059-1.246 9.121.847 2.376 1.259 4.548 1.259 6.642 0 11.028-8.972 20-20 20s-20-8.972-20-20c0-2.093.412-4.266 1.259-6.642 1.092-3.062.627-6.464-1.246-9.121-1.874-2.657-4.922-4.237-8.173-4.237h-44.84v-44.84c0-3.251-1.581-6.299-4.237-8.173-2.658-1.873-6.058-2.338-9.121-1.246-2.376.847-4.549 1.259-6.642 1.259-11.028 0-20-8.972-20-20s8.972-20 20-20c2.093 0 4.266.412 6.642 1.259 3.063 1.094 6.465.627 9.121-1.246 2.657-1.874 4.237-4.922 4.237-8.173v-44.84h33c0 22.056 17.944 40 40 40s40-17.944 40-40h33v28c0 5.523 4.477 10 10 10s10-4.477 10-10v-38c0-5.523-4.477-10-10-10h-54.84c-3.251 0-6.299 1.581-8.173 4.237-1.873 2.657-2.338 6.059-1.246 9.121.847 2.376 1.259 4.548 1.259 6.642 0 11.028-8.972 20-20 20s-20-8.972-20-20c0-2.093.412-4.266 1.259-6.642 1.092-3.062.627-6.463-1.246-9.121z"/></g></svg>